# xmcd CD database file
#
# Track frame offsets:
#	150
#	57315
#	107138
#	142663
#	168842
#	184890
#	202034
#	217095
#	224922
#	242584
#	255301
#	292193
#
# Disc length: 4174 seconds
#
# Revision: 1
# Processed by: cddbd v1.5.2PL0 Copyright (c) Steve Scherf et al.
# Submitted via: CDex 1.51
#
DISCID=c0104c0c
DTITLE=Centerpointe Research Institute (Holosync) - The Inside Secrets of How to be Happy, Peaceful, and Successful... All The Time [CD1]
DYEAR=2003
DGENRE=New Age
TTITLE0=What is Reality?
TTITLE1=Brainwaves and Meditation
TTITLE2=Brainwave Altering Technology
TTITLE3=How Holosync Works
TTITLE4=Questions and Answers
TTITLE5=Questions and Answers
TTITLE6=Questions and Answers
TTITLE7=Questions and Answers
TTITLE8=Questions and Answers
TTITLE9=Questions and Answers
TTITLE10=Questions and Answers
TTITLE11=Questions and Answers
EXTD=YEAR: 2003
EXTT0=
EXTT1=
EXTT2=
EXTT3=
EXTT4=
EXTT5=
EXTT6=
EXTT7=
EXTT8=
EXTT9=
EXTT10=
EXTT11=
PLAYORDER=
